<?xml version="1.0" encoding="UTF-8" standalone="no"?>
<!-- Created with Inkscape (http://www.inkscape.org/) -->

<svg
   xmlns:dc="http://purl.org/dc/elements/1.1/"
   xmlns:cc="http://creativecommons.org/ns#"
   xmlns:rdf="http://www.w3.org/1999/02/22-rdf-syntax-ns#"
   xmlns:svg="http://www.w3.org/2000/svg"
   xmlns="http://www.w3.org/2000/svg"
   version="1.1"
   width="152.5"
   height="173.75"
   id="svg2"
   xml:space="preserve"><metadata
     id="metadata8"><rdf:RDF><cc:Work
         rdf:about=""><dc:format>image/svg+xml</dc:format><dc:type
           rdf:resource="http://purl.org/dc/dcmitype/StillImage" /><dc:title></dc:title></cc:Work></rdf:RDF></metadata><defs
     id="defs6" /><g
     transform="matrix(1.25,0,0,-1.25,0,173.75)"
     id="g10"><g
       transform="scale(0.1,0.1)"
       id="g12"><path
         d="m 176.02,10.1016 0,1239.9984 800,0 0,-479.998 -360,0 -360,-240 0,-120 320,-280 400,0 0,320 -240,0 0,-160"
         id="path14"
         style="fill:none;stroke:#ff0000;stroke-width:32;stroke-linecap:butt;stroke-linejoin:miter;stroke-miterlimit:4;stroke-opacity:1;stroke-dasharray:none" /><path
         d="m 976.02,450.102 240,0"
         id="path16"
         style="fill:none;stroke:#000000;stroke-width:32;stroke-linecap:butt;stroke-linejoin:miter;stroke-miterlimit:4;stroke-opacity:1;stroke-dasharray:none" /><path
         d="m 983.98,290.102 120,0"
         id="path18"
         style="fill:none;stroke:#ff0000;stroke-width:32;stroke-linecap:butt;stroke-linejoin:miter;stroke-miterlimit:4;stroke-opacity:1;stroke-dasharray:none" /><path
         d="m 983.98,130.102 232.04,0"
         id="path20"
         style="fill:none;stroke:#000000;stroke-width:32;stroke-linecap:butt;stroke-linejoin:miter;stroke-miterlimit:4;stroke-opacity:1;stroke-dasharray:none" /><path
         d="m 656.02,258.109 160,0 0,120 -160,0 0,-120 z"
         id="path22"
         style="fill:#ffffff;fill-opacity:1;fill-rule:nonzero;stroke:none" /><path
         d="m 656.02,258.109 160,0 0,120 -160,0 0,-120 z"
         id="path24"
         style="fill:none;stroke:#ffffff;stroke-width:32;stroke-linecap:butt;stroke-linejoin:miter;stroke-miterlimit:4;stroke-opacity:1;stroke-dasharray:none" /><path
         d="m 1200,434.09 0,-40"
         id="path26"
         style="fill:none;stroke:#000000;stroke-width:32;stroke-linecap:butt;stroke-linejoin:miter;stroke-miterlimit:4;stroke-opacity:1;stroke-dasharray:none" /><path
         d="m 1200,146.121 0,40"
         id="path28"
         style="fill:none;stroke:#000000;stroke-width:32;stroke-linecap:butt;stroke-linejoin:miter;stroke-miterlimit:4;stroke-opacity:1;stroke-dasharray:none" /><path
         d="m 16.0195,1090.1 440,0 0,240 -440,0 0,-240 z"
         id="path30"
         style="fill:#ffffff;fill-opacity:1;fill-rule:nonzero;stroke:none" /><path
         d="m 16.0195,1090.1 440,0 0,240 -440,0 0,-240 z"
         id="path32"
         style="fill:none;stroke:#ffffff;stroke-width:32;stroke-linecap:butt;stroke-linejoin:miter;stroke-miterlimit:4;stroke-opacity:1;stroke-dasharray:none" /><path
         d="M 168.012,1058.11 480,1250.1"
         id="path34"
         style="fill:none;stroke:#000000;stroke-width:32;stroke-linecap:butt;stroke-linejoin:miter;stroke-miterlimit:4;stroke-opacity:1;stroke-dasharray:none" /><path
         d="m 191.988,26.1211 31.992,0"
         id="path36"
         style="fill:none;stroke:#000000;stroke-width:32;stroke-linecap:butt;stroke-linejoin:miter;stroke-miterlimit:4;stroke-opacity:1;stroke-dasharray:none" /><path
         d="m 816.02,650.102 240,0 0,720 -240,0 0,-720 z"
         id="path38"
         style="fill:#ffffff;fill-opacity:1;fill-rule:nonzero;stroke:none" /><path
         d="m 816.02,650.102 240,0 0,720 -240,0 0,-720 z"
         id="path40"
         style="fill:none;stroke:#ffffff;stroke-width:32;stroke-linecap:butt;stroke-linejoin:miter;stroke-miterlimit:4;stroke-opacity:1;stroke-dasharray:none" /><path
         d="m 791.988,1266.12 0,-512.03"
         id="path42"
         style="fill:none;stroke:#000000;stroke-width:32;stroke-linecap:butt;stroke-linejoin:miter;stroke-miterlimit:4;stroke-opacity:1;stroke-dasharray:none" /><path
         d="m 314.18,1021 196.371,98.2 163.629,0 0,-229.098 -98.16,0 -264.032,-160 2.192,290.898 z"
         id="path44"
         style="fill:none;stroke:#000000;stroke-width:26.18180084;stroke-linecap:butt;stroke-linejoin:miter;stroke-miterlimit:4;stroke-opacity:1;stroke-dasharray:none" /><path
         d="M 256.02,298.109 551.988,42.0898"
         id="path46"
         style="fill:none;stroke:#000000;stroke-width:32;stroke-linecap:butt;stroke-linejoin:miter;stroke-miterlimit:4;stroke-opacity:1;stroke-dasharray:none" /><path
         d="m 536.02,50.1016 640,0"
         id="path48"
         style="fill:none;stroke:#000000;stroke-width:32;stroke-linecap:butt;stroke-linejoin:miter;stroke-miterlimit:4;stroke-opacity:1;stroke-dasharray:none" /><path
         d="m 976.02,290.102 -160,0"
         id="path50"
         style="fill:none;stroke:#000000;stroke-width:32;stroke-linecap:butt;stroke-linejoin:miter;stroke-miterlimit:4;stroke-opacity:1;stroke-dasharray:none" /><path
         d="m 816.02,330.102 0,-80"
         id="path52"
         style="fill:none;stroke:#000000;stroke-width:32;stroke-linecap:butt;stroke-linejoin:miter;stroke-miterlimit:4;stroke-opacity:1;stroke-dasharray:none" /><path
         d="m 1096.02,330.102 0,-80"
         id="path54"
         style="fill:none;stroke:#ff0000;stroke-width:32;stroke-linecap:butt;stroke-linejoin:miter;stroke-miterlimit:4;stroke-opacity:1;stroke-dasharray:none" /><g
         transform="scale(10,10)"
         id="g56"><text
           transform="matrix(1,0,0,-1,65.8422,61.0102)"
           id="text58"><tspan
             x="0 4.6872001 9.1152 13.5288 18.1008 20.1024 24.6672 29.239201 31.528799 37.108799 39.931282 44.337681 48.902481 53.47448"
             y="0"
             id="tspan60"
             style="font-size:7.19999981px;font-variant:normal;font-weight:normal;writing-mode:lr-tb;fill:#000000;fill-opacity:1;fill-rule:nonzero;stroke:none;font-family:DejaVu Sans;-inkscape-font-specification:DejaVuSans">Reading Group </tspan><tspan
             x="-25.1719 -20.6215 -18.6199 -14.1919 -10.2319 -7.4095001 -4.4288158 -2.4272156 1.5327843 5.9463844 7.9479842 10.237584 14.787984 19.374269 23.946268 25.947868 30.512669 34.94067 39.368668 42.327869 44.329468 48.894268"
             y="9"
             id="tspan62"
             style="font-size:7.19999981px;font-variant:normal;font-weight:normal;writing-mode:lr-tb;fill:#000000;fill-opacity:1;fill-rule:nonzero;stroke:none;font-family:DejaVu Sans;-inkscape-font-specification:DejaVuSans">Electrical Engineering</tspan></text>
</g></g></g></svg>